/* XPM */
static char *Pixmap[] = {
"16 16 256 3",
"000 c black",
"001 c gray1",
"002 c #090909",
"003 c #0C0C0C",
"004 c #0E0E0E",
"005 c #111111",
"006 c gray9",
"007 c #181818",
"008 c gray10",
"009 c gray11",
"010 c #3C3C3C",
"011 c #515151",
"012 c gray32",
"013 c #555753",
"014 c #6A6A6A",
"015 c #6D6D6D",
"016 c #787877",
"017 c #7B7B7B",
"018 c gray50",
"019 c #808080",
"020 c #818181",
"021 c gray51",
"022 c #838383",
"023 c #848484",
"024 c gray52",
"025 c #868686",
"026 c gray53",
"027 c #888887",
"028 c #888888",
"029 c #8C8E8B",
"030 c gray55",
"031 c #8D8D8D",
"032 c #8E8E8E",
"033 c #9A9C99",
"034 c gray63",
"035 c gray68",
"036 c #B1B1B1",
"037 c gray70",
"038 c gray71",
"039 c #B6B6B6",
"040 c #B7B7B7",
"041 c gray72",
"042 c #B9B9B9",
"043 c gray73",
"044 c #BBBBBB",
"045 c #BCBCBC",
"046 c gray74",
"047 c #BEBEBE",
"048 c gray75",
"049 c #C2C2C1",
"050 c #C3C3C3",
"051 c gray77",
"052 c #C5C5C5",
"053 c gray78",
"054 c #D3D3D3",
"055 c #DADADA",
"056 c #DFDFDF",
"057 c #E2E2E2",
"058 c gray89",
"059 c #E4E4E4",
"060 c gray90",
"061 c #E6E6E6",
"062 c #E7E7E7",
"063 c gray91",
"064 c #EAEAEA",
"065 c gray92",
"066 c #ECECEC",
"067 c gray93",
"068 c #EEEEEE",
"069 c #EFEFEF",
"070 c gray94",
"071 c #F1F1F1",
"072 c gray95",
"073 c #F3F3F3",
"074 c #F4F4F4",
"075 c #F6F6F6",
"076 c gray97",
"077 c #F9F9F9",
"078 c gray98",
"079 c #FBFBFB",
"080 c gray100",
"081 c black",
"082 c black",
"083 c black",
"084 c black",
"085 c black",
"086 c black",
"087 c black",
"088 c black",
"089 c black",
"090 c black",
"091 c black",
"092 c black",
"093 c black",
"094 c black",
"095 c black",
"096 c black",
"097 c black",
"098 c black",
"099 c black",
"100 c black",
"101 c black",
"102 c black",
"103 c black",
"104 c black",
"105 c black",
"106 c black",
"107 c black",
"108 c black",
"109 c black",
"110 c black",
"111 c black",
"112 c black",
"113 c black",
"114 c black",
"115 c black",
"116 c black",
"117 c black",
"118 c black",
"119 c black",
"120 c black",
"121 c black",
"122 c black",
"123 c black",
"124 c black",
"125 c black",
"126 c black",
"127 c black",
"128 c black",
"129 c black",
"130 c black",
"131 c black",
"132 c black",
"133 c black",
"134 c black",
"135 c black",
"136 c black",
"137 c black",
"138 c black",
"139 c black",
"140 c black",
"141 c black",
"142 c black",
"143 c black",
"144 c black",
"145 c black",
"146 c black",
"147 c black",
"148 c black",
"149 c black",
"150 c black",
"151 c black",
"152 c black",
"153 c black",
"154 c black",
"155 c black",
"156 c black",
"157 c black",
"158 c black",
"159 c black",
"160 c black",
"161 c black",
"162 c black",
"163 c black",
"164 c black",
"165 c black",
"166 c black",
"167 c black",
"168 c black",
"169 c black",
"170 c black",
"171 c black",
"172 c black",
"173 c black",
"174 c black",
"175 c black",
"176 c black",
"177 c black",
"178 c black",
"179 c black",
"180 c black",
"181 c black",
"182 c black",
"183 c black",
"184 c black",
"185 c black",
"186 c black",
"187 c black",
"188 c black",
"189 c black",
"190 c black",
"191 c black",
"192 c black",
"193 c black",
"194 c black",
"195 c black",
"196 c black",
"197 c black",
"198 c black",
"199 c black",
"200 c black",
"201 c black",
"202 c black",
"203 c black",
"204 c black",
"205 c black",
"206 c black",
"207 c black",
"208 c black",
"209 c black",
"210 c black",
"211 c black",
"212 c black",
"213 c black",
"214 c black",
"215 c black",
"216 c black",
"217 c black",
"218 c black",
"219 c black",
"220 c black",
"221 c black",
"222 c black",
"223 c black",
"224 c black",
"225 c black",
"226 c black",
"227 c black",
"228 c black",
"229 c black",
"230 c black",
"231 c black",
"232 c black",
"233 c black",
"234 c black",
"235 c black",
"236 c black",
"237 c black",
"238 c black",
"239 c black",
"240 c black",
"241 c black",
"242 c black",
"243 c black",
"244 c black",
"245 c black",
"246 c black",
"247 c black",
"248 c black",
"249 c black",
"250 c black",
"251 c black",
"252 c black",
"253 c black",
"254 c black",
"255 c black",
"029013013013013013013013013013013013013013013033",
"013045045045045045045045045045045045045045053013",
"013045031031032032032032032032032032032032053013",
"013054044045045045045046047047047047048050052013",
"027080057057058058059060060061062062062069080018",
"027080057058059059060061061062062062064071080016",
"027080058017009003012061062008000056065068080016",
"027080059056060031002059062035000058071071080016",
"027080060039006000015062062037000059073074080016",
"027080060055061030001059064038000063072077080016",
"027080060011007005014066071004010034068077080016",
"027080061064066067071069072073073075078079080016",
"027080077076076074074070071073072073073073080016",
"027071019020020021022023023024025026026028036016",
"021051040040041042043043044044044044046046051016",
"049021016016016016016016016016016016016016016049"
};
