/* XPM */
static char *Pixmap[] = {
"32 32 256 3",
"000 c #5C410C",
"001 c #594B33",
"002 c #7C5C1F",
"003 c #655027",
"004 c #765A25",
"005 c #795D25",
"006 c #7E5F23",
"007 c #7C5F26",
"008 c #7E612A",
"009 c #7D622D",
"010 c #7B6233",
"011 c #7D6230",
"012 c #7E6533",
"013 c #7D6536",
"014 c #4C4C4C",
"015 c #515151",
"016 c #555555",
"017 c #585858",
"018 c #5D5D5D",
"019 c #61625F",
"020 c #656763",
"021 c #656565",
"022 c #696B67",
"023 c #6C6C6B",
"024 c #71736F",
"025 c gray44",
"026 c #757773",
"027 c gray46",
"028 c #7A7D77",
"029 c gray48",
"030 c #7C7E7A",
"031 c gray",
"032 c #3466A4",
"033 c #406EA9",
"034 c #4371AB",
"035 c #4A75AC",
"036 c #4D78AE",
"037 c #4D79B0",
"038 c #7F807D",
"039 c #5880B2",
"040 c #5C84B6",
"041 c #678FBE",
"042 c #6C90BC",
"043 c #6E94C0",
"044 c #7698C2",
"045 c #7B9DC6",
"046 c #7EA0C5",
"047 c #B43A16",
"048 c #845B26",
"049 c #855C34",
"050 c #9F4E26",
"051 c #8D651B",
"052 c #966B1A",
"053 c #876420",
"054 c #826428",
"055 c #856B3A",
"056 c #896B38",
"057 c #917031",
"058 c #A1721A",
"059 c #A5751B",
"060 c #AC7A1D",
"061 c #AF7C1D",
"062 c #A17E39",
"063 c #BB7F29",
"064 c #8E7241",
"065 c #8C7547",
"066 c #8E7549",
"067 c #947D51",
"068 c #947F56",
"069 c #FB2929",
"070 c #FF3232",
"071 c #EB7A6A",
"072 c #FF6D6D",
"073 c #BA841F",
"074 c #98845D",
"075 c #9A8968",
"076 c #998B6D",
"077 c #9E927B",
"078 c #AC8C44",
"079 c #B08B43",
"080 c #A3916C",
"081 c #A59371",
"082 c #A79777",
"083 c #A59679",
"084 c #C18920",
"085 c #C78D21",
"086 c #CA8F22",
"087 c #CB9022",
"088 c #CB9124",
"089 c #CC9226",
"090 c #CD952C",
"091 c #CF9934",
"092 c #D29E3E",
"093 c #C09951",
"094 c #C99D7A",
"095 c #D2946D",
"096 c #CCA45D",
"097 c #D4A449",
"098 c #D5A952",
"099 c #D7A954",
"100 c #D9AD5D",
"101 c #CAB579",
"102 c #D4AE67",
"103 c #D7B06A",
"104 c #DBB265",
"105 c #DAB76F",
"106 c #DCB56C",
"107 c #DCB770",
"108 c #DEB873",
"109 c #818281",
"110 c #838481",
"111 c gray52",
"112 c #868883",
"113 c #878984",
"114 c #888A87",
"115 c #898989",
"116 c #8D8E8A",
"117 c #8D8D8D",
"118 c #8E908B",
"119 c #8F908D",
"120 c #90928E",
"121 c #92948F",
"122 c gray57",
"123 c #919490",
"124 c #959692",
"125 c #959594",
"126 c #9A9A9A",
"127 c #9A9D98",
"128 c #9D9E9A",
"129 c gray62",
"130 c #869EB9",
"131 c #9EA09C",
"132 c #88A0BD",
"133 c #A09A8E",
"134 c #A7A091",
"135 c #B5AA97",
"136 c #BFB090",
"137 c #A1A2A0",
"138 c #A2A4A0",
"139 c #A4A6A1",
"140 c #A5A5A5",
"141 c #A6A8A5",
"142 c #A8AAA6",
"143 c #AAAAA9",
"144 c #ABADA9",
"145 c #ACAEAA",
"146 c #ADAEAD",
"147 c #AFB0AE",
"148 c #B6B1A7",
"149 c #B0B0AF",
"150 c #B5B1AB",
"151 c #BCB2A1",
"152 c #B1B1B1",
"153 c #B4B3B0",
"154 c #B4B5B2",
"155 c gray71",
"156 c #B4B8B3",
"157 c #B9BBB6",
"158 c #BABCB7",
"159 c gray72",
"160 c #BDBEBD",
"161 c #83A1C1",
"162 c #84A7CD",
"163 c #88A6C7",
"164 c #94ADC7",
"165 c #94ACC8",
"166 c #9EB1C5",
"167 c #9AB5D4",
"168 c #A3B4C5",
"169 c #ABB7C3",
"170 c #ACB8C4",
"171 c #ABBACA",
"172 c #A8BACE",
"173 c #A1BCD9",
"174 c #ACBDD1",
"175 c #BEC0BC",
"176 c #ACC3DC",
"177 c #BCCCDC",
"178 c #B6CBE0",
"179 c #BACDE1",
"180 c #C6AC9B",
"181 c #CDB7A0",
"182 c #C0B6B6",
"183 c #F4ACAC",
"184 c #FFB8B8",
"185 c #CAC2AF",
"186 c #C0C1BF",
"187 c #CAC3B5",
"188 c #D1C9BB",
"189 c #E1CF95",
"190 c #E1D198",
"191 c #E7E1B7",
"192 c #C1C1C1",
"193 c #C4C7C2",
"194 c gray77",
"195 c #C8C8C7",
"196 c #CECBC4",
"197 c #CACACA",
"198 c #CBCCCA",
"199 c #CDCECA",
"200 c #CDCDCD",
"201 c #C5CFD5",
"202 c #C4CFDB",
"203 c #C5D0DC",
"204 c #C9D1D2",
"205 c #CCD4DA",
"206 c #D0D1CF",
"207 c #D9D5CD",
"208 c #D2D2D1",
"209 c gray84",
"210 c #D6D9D2",
"211 c #D7D8D5",
"212 c #D8D8D7",
"213 c #DEDAD2",
"214 c #DFDBD4",
"215 c gray85",
"216 c #DADCD9",
"217 c #DDDDDD",
"218 c #C0CFE0",
"219 c #C3D3E4",
"220 c #C6D7E8",
"221 c #C9D6E3",
"222 c #CCD8E5",
"223 c #CBDAEB",
"224 c #D1DEEB",
"225 c #D9DFE2",
"226 c #DDE0DD",
"227 c #D6E1ED",
"228 c #DAE4ED",
"229 c #DBE5F0",
"230 c #DFE8F0",
"231 c #E1DEDA",
"232 c #E1E3DE",
"233 c #E1E4DF",
"234 c #E9E5DD",
"235 c #E1E1E1",
"236 c #E3E4E2",
"237 c gray90",
"238 c #E2E7E9",
"239 c #E7E9E6",
"240 c #E9E7E3",
"241 c #ECEAE7",
"242 c gray91",
"243 c #E8EBEE",
"244 c #EAECE9",
"245 c #ECECEB",
"246 c gray93",
"247 c #E0E9F2",
"248 c #EFF0EF",
"249 c #E9F0F7",
"250 c #EEF1F2",
"251 c #F1F1F1",
"252 c #F4F4F3",
"253 c #F6F6F5",
"254 c #F8F8F8",
"255 c #FEFEFE",
"255255255255255255255255255255255255255255255255255255255255255255255255255255255255255255255255",
"255255255255255255255255255255255255255255255255255255255255255255255255255255255255255255255255",
"255255255255217129126129129129126125125122117115111109031029027027025023022021023198255255255255",
"255255255255129255255255254255255255255254255254255254254254255254254254254254254023255255255255",
"255255255255125255217217216237217160138120116121142200237237236236237237237235254018255255255255",
"255255255255125255217217217197121175244254255254236144138216237237237237237237254018255255255255",
"255255255255122255226235186124245250165036032039174254216116155160160186237237254018255255255255",
"255255255255119255235209116246221034167219220176043036243209124237242237242237254018255255255255",
"255255255255117255226143198238037221230227224221179046035253127141160192242242254018255255255255",
"255255255255115255217116248042176249249247229224220173041174226124242242242242254018255255255255",
"255255255255114255197128238033224230230228224222177164046039248022186192242244254017255255255255",
"255255255255111255194139201037223229229229229227179176173033239019244245245242254017255255255255",
"255255255255109255200127204034179222222222202171168166132035210019186192246245251003056055234255",
"255255255255031255226116233040162176178179218221221218044130156114246246246231055094184071064255",
"255255255255029255206113193205035163164166168169170132035217028139186194207011180183072070048255",
"255255255255029200119154199251203034045176177176044035225186110248248187008181192182069047067255",
"255255255255038124149126126199244250165036032039172254199020155192077054103100095155050066253255",
"255255254144131149122111143142112157239254255253216114109235251082057107099088063049080255255255",
"255252127141146115117146138131235175121026022024125206248246068062108097087060006001255255255255",
"255146158157111125146127138215215155147152152155155159153010079107092086058005188014255255255255",
"255118232210146147123125200206200197198198208209212196011093106091085052011213254014255255255255",
"255144175233175120160211200208206143140143143146133004096104090084051013241252254014255255255255",
"255251145116030236235235215235217217217235235151054102100089073053074252253253254014255255255255",
"255255255255018254242242237248245194160192150007105098086061002076194195254252254014255255255255",
"255255255255017254242242237248245246246248065101191098059005185254254254254253254014255255255255",
"255255255255017254242242237248245194160134057189190078004148254254254254254253254014255255255255",
"255255255255016254242242237248245246245012136062009081240253254254254254253253254014255255255255",
"255255255255015254242242237248245246075000013135212209208208209209216235237244252014255255255255",
"255255255251018254253253252254254252083213251248245242242237242242246248252253254017242254255255",
"255255251217137018017017017017017017017017017017017017017017017017017017017017018126198236255255",
"255255254235206160159155155155155155155155155155155155155155155155155155155160159194209251255255",
"255255255255254248242242242242242242242242242242242242242242242242242242242245248253255255255255"
};
