/* XPM */
static char *Pixmap[] = {
"16 16 256 3",
"000 c #4C4C4C",
"001 c gray34",
"002 c #585858",
"003 c gray37",
"004 c #686868",
"005 c #6D6D6D",
"006 c #777777",
"007 c gray47",
"008 c #7B7B7B",
"009 c gray",
"010 c #7F807D",
"011 c #7798BF",
"012 c #7C9ABD",
"013 c #7498C2",
"014 c #769AC4",
"015 c #B2502F",
"016 c #AC7B20",
"017 c #856E41",
"018 c #9D7F48",
"019 c #9F7C5E",
"020 c #EB7E7E",
"021 c #A68135",
"022 c #B98524",
"023 c #9E8759",
"024 c #9F8E6B",
"025 c #A58B57",
"026 c #A38B5D",
"027 c #AD8363",
"028 c #AB966E",
"029 c #A69678",
"030 c #AB9875",
"031 c #AC9D7E",
"032 c #BA8F6F",
"033 c #C28D29",
"034 c #CC9446",
"035 c #C39D55",
"036 c #CBA256",
"037 c #D3A44E",
"038 c #D1A553",
"039 c #818181",
"040 c gray51",
"041 c #848484",
"042 c #868686",
"043 c gray53",
"044 c #898989",
"045 c #8D8D8D",
"046 c #90918F",
"047 c #909090",
"048 c gray58",
"049 c gray59",
"050 c #979797",
"051 c gray60",
"052 c #9B9B9B",
"053 c #9C9D9B",
"054 c #9D9E9C",
"055 c #97A9BA",
"056 c #B4A18A",
"057 c #B9AF9C",
"058 c #BCB29C",
"059 c #A1A2A0",
"060 c #A3A5A1",
"061 c #A3A4A2",
"062 c #A4A4A3",
"063 c #A5A6A4",
"064 c #A6A8A5",
"065 c gray67",
"066 c #ACACAA",
"067 c #ADAEAC",
"068 c gray70",
"069 c #B3B5B0",
"070 c #B3B5B2",
"071 c #B5B7B3",
"072 c #B5B8B5",
"073 c #B9BBB7",
"074 c #B8B9B8",
"075 c #B9B9B9",
"076 c #BBBCBB",
"077 c #BABEBD",
"078 c #BCBEBA",
"079 c #BEBDBA",
"080 c #BCBCBC",
"081 c #BEBFBC",
"082 c #82A2C8",
"083 c #87A5C8",
"084 c #8BA9CD",
"085 c #92ADCD",
"086 c #97AFCA",
"087 c #98B1CE",
"088 c #98B3CF",
"089 c #9FB2C8",
"090 c #9CB2CC",
"091 c #9EB5D2",
"092 c #AABCD1",
"093 c #BFC0BE",
"094 c #B2C3D5",
"095 c #B4C3D4",
"096 c #B7C6D5",
"097 c #BDCFE2",
"098 c #DCCD97",
"099 c #CDC8BF",
"100 c #D1C9BC",
"101 c #C1C2C0",
"102 c #C1C2C1",
"103 c #C2C3C0",
"104 c #C5C6C3",
"105 c #C6C6C6",
"106 c #C7C8C7",
"107 c #C7CCCF",
"108 c #C8CBC6",
"109 c #CBCAC9",
"110 c #CBCBCA",
"111 c #CCCCCB",
"112 c #CECDCB",
"113 c gray81",
"114 c #C1CDDB",
"115 c #C3D0DF",
"116 c #C8D0D5",
"117 c #CED2D2",
"118 c #D8D3CB",
"119 c #D0D0D0",
"120 c gray82",
"121 c gray83",
"122 c #D5D5D5",
"123 c #D7D7D7",
"124 c #DDDDDD",
"125 c gray87",
"126 c #C6D4E3",
"127 c #C7D7E7",
"128 c #D9E3ED",
"129 c #D8E3EE",
"130 c #DDE7F0",
"131 c #DEE7F1",
"132 c #E1DACF",
"133 c gray88",
"134 c #E2E2E1",
"135 c #E2E2E2",
"136 c gray89",
"137 c #E4E4E4",
"138 c #E6E6E6",
"139 c #E7E7E6",
"140 c #E7E7E7",
"141 c gray91",
"142 c #E9EAE9",
"143 c #EAEAEA",
"144 c gray93",
"145 c #EEEEEE",
"146 c #EFEFEF",
"147 c #F0EFEE",
"148 c gray94",
"149 c #F1F1F1",
"150 c #F3F3F3",
"151 c #F6F6F6",
"152 c gray97",
"153 c #F9F9F9",
"154 c gray99",
"155 c #FDFDFD",
"156 c #FEFEFE",
"157 c gray100",
"158 c black",
"159 c black",
"160 c black",
"161 c black",
"162 c black",
"163 c black",
"164 c black",
"165 c black",
"166 c black",
"167 c black",
"168 c black",
"169 c black",
"170 c black",
"171 c black",
"172 c black",
"173 c black",
"174 c black",
"175 c black",
"176 c black",
"177 c black",
"178 c black",
"179 c black",
"180 c black",
"181 c black",
"182 c black",
"183 c black",
"184 c black",
"185 c black",
"186 c black",
"187 c black",
"188 c black",
"189 c black",
"190 c black",
"191 c black",
"192 c black",
"193 c black",
"194 c black",
"195 c black",
"196 c black",
"197 c black",
"198 c black",
"199 c black",
"200 c black",
"201 c black",
"202 c black",
"203 c black",
"204 c black",
"205 c black",
"206 c black",
"207 c black",
"208 c black",
"209 c black",
"210 c black",
"211 c black",
"212 c black",
"213 c black",
"214 c black",
"215 c black",
"216 c black",
"217 c black",
"218 c black",
"219 c black",
"220 c black",
"221 c black",
"222 c black",
"223 c black",
"224 c black",
"225 c black",
"226 c black",
"227 c black",
"228 c black",
"229 c black",
"230 c black",
"231 c black",
"232 c black",
"233 c black",
"234 c black",
"235 c black",
"236 c black",
"237 c black",
"238 c black",
"239 c black",
"240 c black",
"241 c black",
"242 c black",
"243 c black",
"244 c black",
"245 c black",
"246 c black",
"247 c black",
"248 c black",
"249 c black",
"250 c black",
"251 c black",
"252 c black",
"253 c black",
"254 c black",
"255 c black",
"157157157157157157157157157157157157157157157157",
"157157105052050048047045044042040009008006065157",
"157157043144124106103104104093134137137145004157",
"157157041145101117087082083114066120124146003157",
"157157039144078085131129127013107074125148003157",
"157157009136077084130128126088090054133149003157",
"157157008143072014097115096086055063135100027032",
"157157007110069094011092089012064119057056020015",
"157155010059051073116091095070076029035034019132",
"157081062049061111067046053109028036033018000157",
"157071108060102113075080079026038022023147000157",
"157139007142135138113112025037016024143151000157",
"157157007148140144123031098021058153152152000157",
"157157007148140144118017030099137141144150001157",
"157154068001002002002002002002002002002002005151",
"157156143121113113113113113113113113113122137154"
};
